<svg width="78" height="11" viewBox="0 0 78 11" fill="none" xmlns="http://www.w3.org/2000/svg">
<g clip-path="url(#clip0)">
<path d="M3.88468 7.26173L7.69739 3.65163L3.81267 -0.026541L-4.20477e-05 3.58356L3.88468 7.26173Z" fill="#FFCCDB"/>
<path d="M7.77884 10.9489L11.5916 7.33884L7.70683 3.66067L3.89412 7.27077L7.77884 10.9489Z" fill="#FF9AB7"/>
<path d="M15.1518 3.97401C14.7356 3.61037 14.1746 3.38382 13.5521 3.3733C12.2417 3.35115 11.2121 4.32602 11.2355 5.56676L11.239 5.75287C11.249 6.28019 11.4549 6.77981 11.7895 7.15757L11.5804 7.35559L7.69568 3.6774L11.5084 0.0673289L15.3931 3.74552L15.1518 3.97401Z" fill="#FF3670"/>
</g>
<path d="M23.21 2.4H24.4L21.49 9.11H21.13L18.22 2.4H19.41L21.31 6.99L23.21 2.4Z" fill="white"/>
<path d="M25.7511 9V2.4H26.8111V9H25.7511Z" fill="white"/>
<path d="M28.7757 9V2.4H30.8457C31.919 2.4 32.7857 2.70333 33.4457 3.31C34.1057 3.91667 34.4357 4.71 34.4357 5.69C34.4357 6.65667 34.1023 7.45 33.4357 8.07C32.7757 8.69 31.9123 9 30.8457 9H28.7757ZM29.8357 8.05H30.8357C31.5957 8.05 32.2023 7.83333 32.6557 7.4C33.1157 6.96 33.3457 6.39 33.3457 5.69C33.3457 4.98333 33.119 4.42 32.6657 4C32.2123 3.57333 31.6023 3.36 30.8357 3.36H29.8357V8.05Z" fill="white"/>
<path d="M35.5995 5.7C35.5795 4.76 35.9162 3.95333 36.6095 3.28C37.3028 2.60667 38.1228 2.27667 39.0695 2.29C39.6695 2.29 40.2195 2.42667 40.7195 2.7C41.2195 2.97333 41.6128 3.34333 41.8995 3.81L41.0995 4.4C40.6128 3.64 39.9395 3.26 39.0795 3.26C38.3995 3.26 37.8328 3.49333 37.3795 3.96C36.9262 4.42 36.6995 5 36.6995 5.7C36.6995 6.4 36.9262 6.98333 37.3795 7.45C37.8328 7.91 38.3995 8.14 39.0795 8.14C39.9395 8.14 40.6128 7.76 41.0995 7L41.8995 7.59C41.6128 8.06333 41.2195 8.43667 40.7195 8.71C40.2262 8.97667 39.6762 9.11 39.0695 9.11C38.1228 9.12333 37.3028 8.79333 36.6095 8.12C35.9162 7.44667 35.5795 6.64 35.5995 5.7Z" fill="white"/>
<path d="M48.8275 9H47.6175L45.7375 6.45H44.5275V9H43.4675V2.4H45.8775C46.5441 2.4 47.0841 2.59 47.4975 2.97C47.9108 3.34333 48.1175 3.82667 48.1175 4.42C48.1175 4.85333 48.0041 5.23333 47.7775 5.56C47.5575 5.88667 47.2475 6.12667 46.8475 6.28L48.8275 9ZM44.5275 3.34V5.51H45.8575C46.2175 5.51 46.5008 5.41333 46.7075 5.22C46.9208 5.02 47.0275 4.75667 47.0275 4.43C47.0275 4.10333 46.9208 3.84 46.7075 3.64C46.5008 3.44 46.2175 3.34 45.8575 3.34H44.5275Z" fill="white"/>
<path d="M49.8108 6.33V2.4H50.8708V6.4C50.8708 6.94667 51.0208 7.37333 51.3208 7.68C51.6274 7.98667 52.0308 8.14 52.5308 8.14C53.0241 8.14 53.4207 7.98667 53.7207 7.68C54.0207 7.37333 54.1707 6.94667 54.1707 6.4V2.4H55.2308V6.33C55.2308 7.18333 54.9774 7.86 54.4708 8.36C53.9708 8.86 53.3241 9.11 52.5308 9.11C51.7241 9.11 51.0674 8.86 50.5607 8.36C50.0607 7.86 49.8108 7.18333 49.8108 6.33Z" fill="white"/>
<path d="M61.5041 2.4H62.5641V9.11H62.2041L58.1841 4.53V9H57.1241V2.29H57.4941L61.5041 6.85V2.4Z" fill="white"/>
<path d="M64.1335 5.7C64.1135 4.76 64.4501 3.95333 65.1435 3.28C65.8368 2.60667 66.6568 2.27667 67.6035 2.29C68.2035 2.29 68.7535 2.42667 69.2535 2.7C69.7535 2.97333 70.1468 3.34333 70.4335 3.81L69.6335 4.4C69.1468 3.64 68.4735 3.26 67.6135 3.26C66.9335 3.26 66.3668 3.49333 65.9135 3.96C65.4601 4.42 65.2335 5 65.2335 5.7C65.2335 6.4 65.4601 6.98333 65.9135 7.45C66.3668 7.91 66.9335 8.14 67.6135 8.14C68.4735 8.14 69.1468 7.76 69.6335 7L70.4335 7.59C70.1468 8.06333 69.7535 8.43667 69.2535 8.71C68.7601 8.97667 68.2102 9.11 67.6035 9.11C66.6568 9.12333 65.8368 8.79333 65.1435 8.12C64.4501 7.44667 64.1135 6.64 64.1335 5.7Z" fill="white"/>
<path d="M72.0015 9V2.4H73.0615V5.03H76.3815V2.4H77.4415V9H76.3815V5.98H73.0615V9H72.0015Z" fill="white"/>
<defs>
<clipPath id="clip0">
<rect width="78" height="11" fill="white"/>
</clipPath>
</defs>
</svg>
