<svg xmlns="http://www.w3.org/2000/svg" viewBox="0 0 142.52 23.51" width="100%" height="100%" preserveAspectRatio="none"><defs><style>.cls-1{fill:#0e0e0e;}</style></defs><g id="Layer_2"><g id="Layer_1-2"><path class="cls-1" d="M5.43,0V0l9,11.72L0,23.48v0H14.58a9.15,9.15,0,0,0,8.91-7.08L24.7,11.2A9.15,9.15,0,0,0,15.79,0Z"/><polygon class="cls-1" points="14.44 11.78 8.1 23.51 0 23.51 14.44 11.78"/><path class="cls-1" d="M36.29,0h9.17c7.39,0,11.6,5.07,10.43,11.69v.06A14.59,14.59,0,0,1,41.31,23.51H32.14Zm5.85,18.84a8.28,8.28,0,0,0,8.32-7v-.07c.74-4.16-1.6-7.08-5.84-7.08h-4l-2.5,14.17Z"/><path class="cls-1" d="M62.7,0H80.6l-.81,4.6H67l-.84,4.77h8.12L73.5,14H65.38l-.88,4.94H77.27l-.81,4.6H58.55Z"/><path class="cls-1" d="M97.29,15.11a9.15,9.15,0,0,0,6.32-7.28V7.76a6.46,6.46,0,0,0-1.07-5.38C101.28.84,99.11,0,96.12,0H85.38L81.23,23.51H86.4L89.73,4.67h5.13c2.52,0,3.87,1.14,3.48,3.36l0,.06c-.35,2-2,3.33-4.55,3.33H89.88l5.63,12.09h6Z"/><path class="cls-1" d="M109.75,0h5.18l-4.15,23.51h-5.17Z"/><path class="cls-1" d="M119.11,0h5.67L128,16.44,137,0h5.54L128.93,23.51H124.4Z"/></g></g></svg>